<?xml version="1.0" standalone="no"?>
<!DOCTYPE svg PUBLIC "-//W3C//DTD SVG 20010904//EN"
 "http://www.w3.org/TR/2001/REC-SVG-20010904/DTD/svg10.dtd">
<svg version="1.0" xmlns="http://www.w3.org/2000/svg"
 width="300.000000pt" height="300.000000pt" viewBox="0 0 300.000000 300.000000"
 preserveAspectRatio="xMidYMid meet">
<metadata>
Created by potrace 1.12, written by Peter Selinger 2001-2015
</metadata>
<g transform="translate(0.000000,300.000000) scale(0.100000,-0.100000)"
fill="#000000" stroke="none">
<path d="M62 2941 c-5 -4 -9 -610 -8 -1446 l1 -1440 1445 0 1445 0 2 1425 c2
784 1 1434 -2 1446 l-5 21 -1434 0 c-789 0 -1439 -3 -1444 -6z m2353 -385 c11
-3 25 -5 31 -5 6 -1 9 -27 8 -68 -1 -38 -2 -114 -3 -170 l-1 -103 -141 0
c-230 0 -241 -12 -243 -262 0 -86 2 -159 6 -163 3 -4 92 -7 196 -7 l190 0 -4
-101 c-4 -93 -11 -241 -13 -259 -1 -5 -85 -8 -189 -8 l-187 0 1 -497 c0 -274
-2 -504 -4 -511 -3 -9 -51 -12 -192 -12 l-188 0 -1 477 c0 263 0 493 0 511
l-1 32 -130 0 -130 0 -1 28 c0 15 -2 98 -2 184 l-2 157 128 0 c71 -1 131 2
134 5 3 2 6 98 8 213 2 174 6 218 22 268 36 112 102 190 204 245 96 51 145 59
324 54 88 -2 169 -6 180 -8z"/>
</g>
</svg>
